<svg width="17" height="14" viewBox="0 0 17 14" fill="none" xmlns="http://www.w3.org/2000/svg">
<path d="M16.2858 2.08167C16.6667 3.56667 16.6667 6.66667 16.6667 6.66667C16.6667 6.66667 16.6667 9.76667 16.2858 11.2517C16.0742 12.0725 15.455 12.7183 14.6708 12.9367C13.2467 13.3333 8.33333 13.3333 8.33333 13.3333C8.33333 13.3333 3.4225 13.3333 1.99583 12.9367C1.20833 12.715 0.59 12.07 0.380833 11.2517C2.48353e-08 9.76667 0 6.66667 0 6.66667C0 6.66667 2.48353e-08 3.56667 0.380833 2.08167C0.5925 1.26083 1.21167 0.615 1.99583 0.396666C3.4225 -1.49012e-07 8.33333 0 8.33333 0C8.33333 0 13.2467 -1.49012e-07 14.6708 0.396666C15.4583 0.618333 16.0767 1.26333 16.2858 2.08167ZM6.66667 9.58333L11.6667 6.66667L6.66667 3.75V9.58333Z" fill="black"/>
</svg>
