<svg width="20" height="20" viewBox="0 0 20 20" fill="none" xmlns="http://www.w3.org/2000/svg">
<path d="M17.9523 5.41516C18.3332 6.90016 18.3332 10.0002 18.3332 10.0002C18.3332 10.0002 18.3332 13.1002 17.9523 14.5852C17.7407 15.406 17.1215 16.0518 16.3373 16.2702C14.9132 16.6668 9.99984 16.6668 9.99984 16.6668C9.99984 16.6668 5.089 16.6668 3.66234 16.2702C2.87484 16.0485 2.2565 15.4035 2.04734 14.5852C1.6665 13.1002 1.6665 10.0002 1.6665 10.0002C1.6665 10.0002 1.6665 6.90016 2.04734 5.41516C2.259 4.59433 2.87817 3.9485 3.66234 3.73016C5.089 3.3335 9.99984 3.3335 9.99984 3.3335C9.99984 3.3335 14.9132 3.3335 16.3373 3.73016C17.1248 3.95183 17.7432 4.59683 17.9523 5.41516ZM8.33317 12.9168L13.3332 10.0002L8.33317 7.0835V12.9168Z" fill="white"/>
</svg>
